<?xml version="1.0" encoding="utf-8"?><!-- Uploaded to: SVG Repo, www.svgrepo.com, Generator: SVG Repo Mixer Tools -->
<svg width="15px" height="15px" viewBox="0 0 24 24" fill="none" xmlns="http://www.w3.org/2000/svg">
<path d="M12 21C10.22 21 8.47991 20.4722 6.99987 19.4832C5.51983 18.4943 4.36628 17.0887 3.68509 15.4442C3.0039 13.7996 2.82567 11.99 3.17294 10.2442C3.5202 8.49836 4.37737 6.89472 5.63604 5.63604C6.89472 4.37737 8.49836 3.5202 10.2442 3.17294C11.99 2.82567 13.7996 3.0039 15.4442 3.68509C17.0887 4.36628 18.4943 5.51983 19.4832 6.99987C20.4722 8.47991 21 10.22 21 12C21 14.387 20.0518 16.6761 18.364 18.364C16.6761 20.0518 14.387 21 12 21ZM12 4.5C10.5166 4.5 9.0666 4.93987 7.83323 5.76398C6.59986 6.58809 5.63856 7.75943 5.07091 9.12988C4.50325 10.5003 4.35473 12.0083 4.64411 13.4632C4.9335 14.918 5.64781 16.2544 6.6967 17.3033C7.7456 18.3522 9.08197 19.0665 10.5368 19.3559C11.9917 19.6453 13.4997 19.4968 14.8701 18.9291C16.2406 18.3614 17.4119 17.4001 18.236 16.1668C19.0601 14.9334 19.5 13.4834 19.5 12C19.5 10.0109 18.7098 8.10323 17.3033 6.6967C15.8968 5.29018 13.9891 4.5 12 4.5Z" fill="#000000"/>
<path d="M10 16.75C9.90147 16.7505 9.80383 16.7313 9.71282 16.6935C9.62181 16.6557 9.53926 16.6001 9.47001 16.53C9.32956 16.3894 9.25067 16.1988 9.25067 16C9.25067 15.8013 9.32956 15.6107 9.47001 15.47L12.94 12L9.47001 8.53003C9.33753 8.38785 9.26541 8.19981 9.26884 8.00551C9.27226 7.81121 9.35098 7.62582 9.48839 7.48841C9.6258 7.35099 9.81119 7.27228 10.0055 7.26885C10.1998 7.26543 10.3878 7.33755 10.53 7.47003L14.53 11.47C14.6705 11.6107 14.7494 11.8013 14.7494 12C14.7494 12.1988 14.6705 12.3894 14.53 12.53L10.53 16.53C10.4608 16.6001 10.3782 16.6557 10.2872 16.6935C10.1962 16.7313 10.0986 16.7505 10 16.75Z" fill="#000000"/>
</svg>